<?xml version="1.0" encoding="utf-8"?>
<!-- Generator: Adobe Illustrator 16.0.0, SVG Export Plug-In . SVG Version: 6.00 Build 0)  -->
<!DOCTYPE svg PUBLIC "-//W3C//DTD SVG 1.1//EN" "http://www.w3.org/Graphics/SVG/1.1/DTD/svg11.dtd">
<svg version="1.1" id="Layer_1" xmlns="http://www.w3.org/2000/svg" xmlns:xlink="http://www.w3.org/1999/xlink" x="0px" y="0px"
	 width="500px" height="500px" viewBox="0 0 500 500" enable-background="new 0 0 500 500" xml:space="preserve">
<circle fill="#166734" stroke="#166734" stroke-width="2" stroke-miterlimit="10" cx="250.362" cy="250.362" r="245.363"/>
<g>
	<path fill="none" d="M453.381,257.859c-4.525,111.777-98.809,198.722-210.585,194.194
		c-111.778-4.526-198.722-98.809-194.195-210.585C53.127,129.693,147.408,42.75,259.188,47.276
		C370.961,51.802,457.905,146.084,453.381,257.859z"/>
	<path fill="#FFFFFF" d="M54.602,300.779l-28.131,5.636l-1.941-9.69c-0.439-2.188-0.639-3.884-0.601-5.089
		c0.048-1.688,0.444-3.196,1.189-4.53c0.957-1.735,2.337-3.165,4.139-4.292c1.804-1.126,3.96-1.941,6.467-2.443
		c2.137-0.428,4.08-0.559,5.83-0.39c1.751,0.168,3.245,0.535,4.481,1.099c1.238,0.563,2.259,1.247,3.066,2.051
		c0.807,0.803,1.5,1.828,2.083,3.075s1.044,2.722,1.385,4.423L54.602,300.779z M50.536,297.722l-1.203-6.007
		c-0.371-1.854-0.835-3.274-1.393-4.262c-0.557-0.986-1.21-1.729-1.964-2.23c-1.059-0.706-2.384-1.156-3.973-1.351
		c-1.588-0.193-3.446-0.077-5.57,0.348c-2.942,0.589-5.106,1.525-6.492,2.808c-1.386,1.282-2.211,2.668-2.471,4.157
		c-0.184,1.075-0.054,2.719,0.389,4.933l1.184,5.91L50.536,297.722z"/>
	<path fill="#FFFFFF" d="M49.509,273.1l-28.632,1.844l-1.333-20.703l3.38-0.217l1.087,16.913l8.77-0.564l-1.02-15.839l3.359-0.217
		l1.02,15.84l9.747-0.628l-1.132-17.577l3.38-0.218L49.509,273.1z"/>
	<path fill="#FFFFFF" d="M48.192,247.316l-28.637-1.773l0.667-10.802c0.118-1.901,0.3-3.348,0.543-4.339
		c0.322-1.392,0.841-2.543,1.557-3.453c0.717-0.91,1.687-1.618,2.907-2.124s2.541-0.715,3.959-0.627
		c2.436,0.151,4.449,1.053,6.039,2.708c1.591,1.654,2.26,4.506,2.009,8.556l-0.455,7.344l11.643,0.721L48.192,247.316z
		 M33.405,242.596l0.458-7.403c0.152-2.448-0.196-4.214-1.044-5.3c-0.847-1.085-2.099-1.679-3.752-1.782
		c-1.198-0.074-2.243,0.165-3.133,0.718c-0.89,0.553-1.503,1.316-1.838,2.289c-0.208,0.628-0.366,1.801-0.472,3.52l-0.454,7.325
		L33.405,242.596z"/>
	<path fill="#FFFFFF" d="M49.2,227.466l-26.342-15.832l0.711-4.028l30.293-6.584l-0.751,4.26l-9.138,1.788l-2.084,11.814
		l8.012,4.612L49.2,227.466z M39.035,217.268l1.689-9.579l-8.345,1.57c-2.537,0.48-4.606,0.805-6.213,0.971
		c1.749,0.679,3.458,1.504,5.128,2.474L39.035,217.268z"/>
	<path fill="#FFFFFF" d="M54.524,198.909l-27.341-8.699l3.857-12.123c0.776-2.437,1.611-4.211,2.505-5.323
		c0.895-1.112,2.085-1.849,3.569-2.212c1.485-0.362,2.98-0.305,4.484,0.174c1.939,0.617,3.375,1.766,4.305,3.445
		c0.931,1.679,1.159,3.888,0.686,6.626c0.765-0.812,1.449-1.395,2.056-1.749c1.305-0.749,2.835-1.364,4.592-1.846l8.953-2.388
		l-1.448,4.551l-6.838,1.809c-1.978,0.534-3.51,1.005-4.598,1.412c-1.089,0.407-1.893,0.825-2.412,1.255
		c-0.521,0.43-0.938,0.902-1.253,1.418c-0.218,0.383-0.476,1.041-0.772,1.973l-1.335,4.196l12.141,3.863L54.524,198.909z
		 M40.401,190.431l2.475-7.777c0.525-1.653,0.767-3,0.721-4.042c-0.045-1.041-0.366-1.923-0.964-2.647
		c-0.599-0.725-1.338-1.227-2.221-1.508c-1.293-0.411-2.505-0.28-3.637,0.394c-1.131,0.674-2.021,2.024-2.665,4.05l-2.754,8.653
		L40.401,190.431z"/>
	<path fill="#FFFFFF" d="M66.282,166.375l-22.968-10.622l-3.968,8.58l-3.074-1.421l9.545-20.642l3.074,1.421l-3.984,8.615
		l22.968,10.622L66.282,166.375z"/>
	<path fill="#FFFFFF" d="M73.115,151.706L48.99,136.176l3.093-4.805l20.758,5.286c1.93,0.498,3.367,0.879,4.313,1.146
		c-0.701-0.839-1.715-2.097-3.041-3.773l-13.068-16.582l2.765-4.295l24.125,15.53l-1.98,3.077l-20.192-12.998l15.679,20.009
		l-1.853,2.879l-25.03-6.243l20.538,13.221L73.115,151.706z"/>
	<path fill="#FFFFFF" d="M91.284,124.639l-21.663-18.813l13.604-15.663l2.555,2.22l-11.112,12.796l6.634,5.762l10.408-11.983
		l2.541,2.208l-10.408,11.983l7.374,6.403l11.55-13.298l2.556,2.22L91.284,124.639z"/>
	<path fill="#FFFFFF" d="M108.384,105.367L89.394,83.86l2.918-2.578l26.207,6.912l-14.91-16.886l2.73-2.41l18.989,21.508
		l-2.919,2.578L96.19,86.057l14.922,16.901L108.384,105.367z"/>
	<path fill="#FFFFFF" d="M135.813,83.018L121.6,62.082l-7.82,5.309l-1.901-2.8l18.816-12.773l1.9,2.801l-7.853,5.332l14.213,20.937
		L135.813,83.018z"/>
	<path fill="#FFFFFF" d="M151.565,56.787c-1.914-4.36-2.241-8.289-0.982-11.784c1.258-3.495,3.739-6.055,7.443-7.681
		c2.425-1.065,4.865-1.445,7.322-1.142c2.456,0.305,4.65,1.268,6.582,2.893c1.931,1.624,3.474,3.751,4.627,6.378
		c1.169,2.665,1.678,5.284,1.526,7.858c-0.152,2.575-0.977,4.835-2.473,6.782c-1.497,1.947-3.386,3.42-5.667,4.422
		c-2.473,1.086-4.945,1.458-7.417,1.119c-2.473-0.339-4.663-1.322-6.574-2.949C154.04,61.059,152.579,59.093,151.565,56.787z
		 M155.174,55.268c1.389,3.166,3.335,5.286,5.837,6.36c2.501,1.075,5.037,1.048,7.606-0.08c2.616-1.148,4.365-3.014,5.249-5.596
		c0.882-2.582,0.582-5.564-0.903-8.944c-0.938-2.139-2.119-3.847-3.542-5.124s-3.023-2.05-4.8-2.318
		c-1.777-0.267-3.532-0.02-5.264,0.741c-2.461,1.081-4.208,2.855-5.24,5.325C153.084,48.101,153.438,51.313,155.174,55.268z"/>
	<path fill="#FFFFFF" d="M186.354,57.432l-7.928-27.574l18.601-5.35l0.937,3.254l-14.954,4.3l2.456,8.539l12.94-3.722l0.936,3.254
		l-12.94,3.722l3.602,12.526L186.354,57.432z"/>
	<path fill="#FFFFFF" d="M238.943,37.184l3.873,0.582c-0.487,3.182-1.678,5.689-3.577,7.521c-1.897,1.833-4.333,2.895-7.307,3.187
		c-3.077,0.303-5.641-0.076-7.692-1.139c-2.052-1.064-3.698-2.734-4.938-5.011c-1.241-2.277-1.995-4.779-2.264-7.506
		c-0.292-2.973,0.021-5.623,0.938-7.949c0.917-2.325,2.37-4.166,4.352-5.522c1.985-1.355,4.236-2.157,6.755-2.406
		c2.856-0.281,5.331,0.209,7.422,1.472c2.09,1.262,3.648,3.174,4.673,5.734l-3.633,1.243c-0.866-2.012-1.977-3.431-3.33-4.254
		c-1.352-0.823-2.983-1.142-4.891-0.954c-2.196,0.216-3.978,0.922-5.348,2.12c-1.371,1.197-2.267,2.71-2.69,4.542
		c-0.422,1.831-0.542,3.688-0.355,5.571c0.239,2.428,0.801,4.513,1.688,6.255c0.887,1.742,2.12,2.987,3.702,3.736
		c1.582,0.749,3.243,1.038,4.982,0.866c2.116-0.208,3.848-0.995,5.195-2.359C237.846,41.546,238.66,39.637,238.943,37.184z"/>
	<path fill="#FFFFFF" d="M247.086,32.583c0.27-4.755,1.758-8.405,4.463-10.95c2.706-2.545,6.078-3.704,10.116-3.474
		c2.644,0.15,4.992,0.917,7.045,2.301c2.051,1.384,3.569,3.238,4.555,5.561c0.986,2.323,1.396,4.917,1.234,7.784
		c-0.166,2.905-0.898,5.47-2.2,7.696c-1.304,2.227-3.063,3.868-5.279,4.925c-2.216,1.057-4.567,1.514-7.057,1.374
		c-2.696-0.153-5.07-0.941-7.118-2.364c-2.049-1.423-3.557-3.293-4.523-5.609C247.355,37.512,246.943,35.097,247.086,32.583z
		 M250.991,32.863c-0.195,3.452,0.579,6.224,2.322,8.315c1.743,2.092,4.016,3.217,6.816,3.376c2.854,0.162,5.258-0.708,7.215-2.61
		c1.957-1.901,3.04-4.695,3.249-8.382c0.133-2.332-0.146-4.39-0.835-6.173c-0.69-1.784-1.767-3.197-3.229-4.241
		s-3.14-1.619-5.027-1.726c-2.684-0.152-5.045,0.638-7.086,2.372C252.377,25.529,251.235,28.552,250.991,32.863z"/>
	<path fill="#FFFFFF" d="M277.474,48.369l5.622-28.135l5.604,1.119l2.68,21.251c0.243,1.979,0.413,3.456,0.511,4.434
		c0.524-0.96,1.323-2.363,2.398-4.211l10.647-18.229l5.009,1.001l-5.621,28.135l-3.588-0.717l4.703-23.548L292.56,51.382
		l-3.359-0.671l-3.352-25.577l-4.786,23.951L277.474,48.369z"/>
	<path fill="#FFFFFF" d="M309.248,55.344l9.612-27.033l10.198,3.625c1.793,0.638,3.134,1.212,4.019,1.721
		c1.25,0.693,2.212,1.51,2.89,2.45c0.676,0.939,1.09,2.067,1.239,3.379c0.148,1.313-0.015,2.641-0.491,3.98
		c-0.818,2.299-2.24,3.984-4.27,5.056s-4.956,0.928-8.778-0.432l-6.935-2.465l-3.907,10.99L309.248,55.344z M317.867,42.436
		l6.989,2.485c2.312,0.822,4.105,0.975,5.382,0.46c1.277-0.515,2.193-1.553,2.749-3.115c0.402-1.131,0.461-2.201,0.176-3.209
		c-0.286-1.009-0.85-1.808-1.693-2.398c-0.545-0.374-1.628-0.85-3.252-1.426l-6.915-2.459L317.867,42.436z"/>
	<path fill="#FFFFFF" d="M363.394,47.388l3.375,1.738l-7.589,14.737c-1.321,2.564-2.659,4.45-4.016,5.659
		c-1.356,1.209-3.035,1.897-5.035,2.063c-2.001,0.166-4.23-0.385-6.69-1.651c-2.39-1.231-4.131-2.649-5.227-4.255
		c-1.096-1.606-1.566-3.357-1.413-5.251c0.154-1.895,0.928-4.193,2.319-6.896l7.59-14.737l3.375,1.738l-7.58,14.72
		c-1.143,2.215-1.776,3.954-1.905,5.215c-0.129,1.262,0.162,2.436,0.873,3.521c0.711,1.085,1.791,2,3.24,2.748
		c2.482,1.278,4.541,1.627,6.176,1.045s3.276-2.473,4.927-5.674L363.394,47.388z"/>
	<path fill="#FFFFFF" d="M364.265,81.701l14.36-20.836l-7.783-5.363l1.921-2.788l18.726,12.904l-1.922,2.788l-7.815-5.386
		l-14.359,20.836L364.265,81.701z"/>
	<path fill="#FFFFFF" d="M377.656,91.258l19.035-21.468l15.522,13.763l-2.246,2.533l-12.682-11.244l-5.829,6.575l11.875,10.53
		l-2.232,2.519l-11.877-10.53l-6.478,7.308l13.179,11.685l-2.247,2.534L377.656,91.258z"/>
	<path fill="#FFFFFF" d="M396.788,108.601l21.697-18.773l8.323,9.62c1.674,1.934,2.751,3.573,3.232,4.917
		c0.48,1.344,0.487,2.743,0.021,4.199c-0.466,1.455-1.296,2.7-2.49,3.732c-1.537,1.332-3.267,1.957-5.185,1.873
		c-1.919-0.083-3.921-1.042-6.008-2.876c0.291,1.076,0.43,1.964,0.417,2.667c-0.044,1.504-0.319,3.131-0.824,4.88l-2.64,8.883
		l-3.124-3.612l2.029-6.776c0.576-1.966,0.975-3.519,1.196-4.659c0.221-1.141,0.284-2.045,0.188-2.713
		c-0.095-0.668-0.279-1.271-0.555-1.809c-0.213-0.385-0.64-0.948-1.279-1.688l-2.882-3.33l-9.635,8.336L396.788,108.601z
		 M411.394,100.984l5.341,6.172c1.135,1.312,2.158,2.221,3.069,2.727c0.912,0.505,1.833,0.692,2.764,0.56
		c0.93-0.131,1.743-0.5,2.444-1.106c1.026-0.888,1.547-1.99,1.563-3.307c0.018-1.317-0.67-2.78-2.063-4.388l-5.94-6.867
		L411.394,100.984z"/>
	<path fill="#FFFFFF" d="M428.243,133.179l2.074,2.936c-1.155,0.869-1.973,1.803-2.455,2.802s-0.642,2.205-0.475,3.618
		c0.167,1.413,0.661,2.824,1.481,4.233c0.729,1.251,1.561,2.248,2.491,2.989c0.93,0.742,1.854,1.157,2.777,1.248
		c0.92,0.089,1.763-0.089,2.529-0.536c0.778-0.454,1.325-1.075,1.644-1.864c0.317-0.789,0.372-1.817,0.162-3.084
		c-0.129-0.816-0.583-2.522-1.363-5.118c-0.781-2.596-1.194-4.492-1.242-5.688c-0.07-1.544,0.185-2.875,0.766-3.991
		c0.58-1.116,1.439-2.005,2.577-2.669c1.252-0.729,2.628-1.056,4.131-0.98c1.5,0.076,2.931,0.632,4.29,1.667
		c1.357,1.036,2.523,2.387,3.496,4.056c1.071,1.837,1.72,3.63,1.946,5.378c0.227,1.749-0.016,3.335-0.725,4.761
		c-0.71,1.425-1.775,2.59-3.197,3.494l-2.069-3.007c1.469-1.082,2.317-2.345,2.55-3.787c0.232-1.441-0.207-3.115-1.317-5.02
		c-1.156-1.983-2.363-3.217-3.619-3.701c-1.256-0.483-2.396-0.426-3.423,0.172c-0.89,0.52-1.436,1.268-1.635,2.246
		c-0.207,0.966,0.164,2.958,1.115,5.975s1.49,5.154,1.618,6.408c0.176,1.831-0.047,3.388-0.666,4.67
		c-0.619,1.282-1.594,2.311-2.924,3.086c-1.318,0.769-2.781,1.116-4.389,1.041c-1.606-0.075-3.146-0.631-4.62-1.668
		c-1.472-1.037-2.724-2.44-3.757-4.21c-1.306-2.243-2.076-4.313-2.305-6.21c-0.23-1.897,0.06-3.66,0.87-5.287
		C425.392,135.509,426.611,134.189,428.243,133.179z"/>
	<path fill="#FFFFFF" d="M450.867,176.452l0.573,3.873c-3.185,0.464-5.931,0.056-8.236-1.224c-2.307-1.28-4.034-3.299-5.182-6.058
		c-1.188-2.854-1.574-5.418-1.156-7.691c0.418-2.272,1.534-4.334,3.35-6.186c1.816-1.851,3.989-3.303,6.518-4.356
		c2.759-1.148,5.385-1.623,7.876-1.424c2.492,0.199,4.678,1.049,6.554,2.551c1.876,1.501,3.3,3.42,4.272,5.757
		c1.104,2.65,1.356,5.159,0.759,7.528c-0.598,2.368-1.97,4.416-4.119,6.145l-2.25-3.112c1.673-1.417,2.704-2.893,3.098-4.427
		c0.393-1.535,0.221-3.187-0.517-4.958c-0.848-2.036-2.044-3.534-3.588-4.495c-1.545-0.961-3.255-1.376-5.13-1.246
		s-3.686,0.56-5.433,1.286c-2.252,0.938-4.082,2.084-5.488,3.44c-1.407,1.356-2.238,2.9-2.493,4.632
		c-0.254,1.73-0.046,3.403,0.626,5.017c0.817,1.963,2.076,3.39,3.775,4.28C446.374,176.676,448.438,176.897,450.867,176.452z"/>
	<path fill="#FFFFFF" d="M444.123,188.392l27.425-8.43l1.114,3.629l-27.425,8.43L444.123,188.392z"/>
	<path fill="#FFFFFF" d="M447.14,197.886l28.078-5.899l4.265,20.302l-3.313,0.696l-3.484-16.586l-8.6,1.807l3.264,15.533
		l-3.295,0.692l-3.263-15.533l-9.557,2.008l3.62,17.238l-3.313,0.696L447.14,197.886z"/>
	<path fill="#FFFFFF" d="M452.159,223.137l28.613-2.108l0.286,3.884L459.7,241.597l22.466-1.656l0.268,3.631l-28.613,2.109
		l-0.286-3.885l21.377-16.686l-22.484,1.657L452.159,223.137z"/>
	<path fill="#FFFFFF" d="M462.606,272.218l-1.197,3.729c-3.062-0.991-5.345-2.57-6.849-4.737s-2.161-4.741-1.974-7.723
		c0.194-3.087,0.981-5.558,2.36-7.411c1.378-1.854,3.291-3.211,5.737-4.07c2.447-0.858,5.037-1.202,7.771-1.029
		c2.982,0.189,5.548,0.921,7.696,2.202c2.147,1.279,3.731,3.007,4.752,5.183c1.02,2.176,1.449,4.526,1.289,7.053
		c-0.181,2.864-1.062,5.228-2.644,7.089c-1.58,1.861-3.718,3.092-6.409,3.694l-0.645-3.787c2.126-0.532,3.703-1.4,4.733-2.604
		s1.606-2.761,1.727-4.676c0.14-2.2-0.271-4.073-1.233-5.617s-2.312-2.673-4.052-3.383c-1.739-0.712-3.553-1.127-5.441-1.246
		c-2.435-0.154-4.583,0.066-6.444,0.662c-1.861,0.595-3.288,1.613-4.281,3.053c-0.993,1.441-1.544,3.034-1.654,4.779
		c-0.134,2.122,0.364,3.958,1.495,5.507C458.477,270.435,460.23,271.545,462.606,272.218z"/>
	<path fill="#FFFFFF" d="M451.657,279.208l28.146,5.566l-4.025,20.352l-3.321-0.657l3.288-16.626l-8.62-1.705l-3.08,15.57
		l-3.302-0.653l3.08-15.57l-9.581-1.895l-3.417,17.279l-3.322-0.656L451.657,279.208z"/>
</g>
<circle fill="#FFFFFF" cx="250.362" cy="248.968" r="194.477"/>
<circle fill="#FFFFFF" stroke="#166734" stroke-width="6" stroke-miterlimit="10" cx="106.769" cy="250.362" r="22.305"/>
<circle fill="#FFFFFF" stroke="#166734" stroke-width="6" stroke-miterlimit="10" cx="212.024" cy="175.778" r="21.609"/>
<circle fill="#FFFFFF" stroke="#166734" stroke-width="6" stroke-miterlimit="10" cx="317.278" cy="122.104" r="22.306"/>
<circle fill="#FFFFFF" stroke="#166734" stroke-width="6" stroke-miterlimit="10" cx="317.278" cy="226.663" r="22.306"/>
<circle fill="#FFFFFF" stroke="#166734" stroke-width="6" stroke-miterlimit="10" cx="317.278" cy="279.639" r="22.306"/>
<circle fill="#FFFFFF" stroke="#166734" stroke-width="6" stroke-miterlimit="10" cx="212.024" cy="329.129" r="21.609"/>
<circle fill="#FFFFFF" stroke="#166734" stroke-width="6" stroke-miterlimit="10" cx="318.589" cy="384.015" r="22.757"/>
<line fill="none" stroke="#166734" stroke-width="6" stroke-miterlimit="10" x1="125.507" y1="238.29" x2="191.838" y2="183.434"/>
<line fill="none" stroke="#166734" stroke-width="6" stroke-miterlimit="10" x1="231.192" y1="165.825" x2="297.343" y2="132.064"/>
<line fill="none" stroke="#166734" stroke-width="6" stroke-miterlimit="10" x1="125.507" y1="262.433" x2="191.838" y2="321.469"/>
<line fill="none" stroke="#166734" stroke-width="6" stroke-miterlimit="10" x1="231.192" y1="185.729" x2="297.343" y2="216.702"/>
<line fill="none" stroke="#166734" stroke-width="6" stroke-miterlimit="10" x1="233.633" y1="321.469" x2="297.343" y2="289.599"/>
<line fill="none" stroke="#166734" stroke-width="6" stroke-miterlimit="10" x1="230.763" y1="340.829" x2="298.251" y2="373.853"/>
<g>
	<circle fill="none" cx="250.363" cy="250.362" r="218.874"/>
	<path fill="#FFFFFF" d="M94.605,394.663l1.175,2.3c-1.892,0.962-3.694,1.284-5.405,0.971c-1.71-0.314-3.215-1.213-4.513-2.694
		c-1.344-1.533-2.124-3.054-2.342-4.563c-0.217-1.508,0.046-3.03,0.791-4.57c0.745-1.539,1.796-2.903,3.155-4.094
		c1.482-1.3,3.022-2.149,4.621-2.55c1.6-0.4,3.144-0.329,4.632,0.215c1.487,0.544,2.781,1.442,3.881,2.698
		c1.248,1.423,1.934,2.938,2.06,4.543c0.126,1.605-0.301,3.175-1.279,4.708l-2.061-1.472c0.746-1.236,1.08-2.376,1.002-3.418
		c-0.078-1.041-0.533-2.038-1.366-2.988c-0.958-1.094-2.022-1.778-3.189-2.054c-1.168-0.275-2.323-0.175-3.467,0.302
		s-2.186,1.126-3.124,1.948c-1.21,1.06-2.112,2.161-2.705,3.305c-0.594,1.145-0.788,2.283-0.582,3.418
		c0.205,1.137,0.688,2.137,1.448,3.005c0.924,1.054,2.01,1.68,3.259,1.878C91.845,395.75,93.181,395.454,94.605,394.663z"/>
	<path fill="#FFFFFF" d="M100.427,397.187c2.147-2.291,4.444-3.508,6.889-3.65c2.445-0.144,4.641,0.696,6.586,2.521
		c1.274,1.194,2.137,2.576,2.59,4.143c0.453,1.568,0.437,3.148-0.047,4.74c-0.484,1.592-1.373,3.079-2.667,4.459
		c-1.312,1.4-2.769,2.388-4.369,2.963c-1.601,0.576-3.185,0.661-4.753,0.259s-2.951-1.166-4.15-2.29
		c-1.299-1.217-2.166-2.619-2.601-4.206s-0.407-3.169,0.083-4.75C98.479,399.794,99.292,398.398,100.427,397.187z M102.284,398.979
		c-1.56,1.663-2.34,3.393-2.343,5.188s0.671,3.326,2.021,4.592c1.375,1.287,2.959,1.864,4.753,1.73
		c1.794-0.134,3.524-1.089,5.189-2.865c1.053-1.124,1.782-2.283,2.188-3.476c0.405-1.195,0.459-2.365,0.16-3.513
		c-0.299-1.146-0.904-2.146-1.813-2.999c-1.294-1.212-2.822-1.811-4.587-1.797C106.087,395.855,104.231,396.902,102.284,398.979z"/>
	<path fill="#FFFFFF" d="M111.1,419.308l11.677-14.885l1.97,1.546l-10.299,13.128l7.331,5.75l-1.378,1.757L111.1,419.308z"/>
	<path fill="#FFFFFF" d="M123.979,429.158l10.548-15.704l2.078,1.396l-9.303,13.852l7.734,5.195l-1.244,1.852L123.979,429.158z"/>
	<path fill="#FFFFFF" d="M137.736,438.189l9.241-16.508l11.936,6.683l-1.091,1.947l-9.751-5.459l-2.83,5.056l9.132,5.112
		l-1.084,1.938l-9.133-5.113l-3.145,5.619l10.134,5.674l-1.09,1.946L137.736,438.189z"/>
	<path fill="#FFFFFF" d="M165.82,444.238l0.894-2.031l7.34,3.217l-2.829,6.425c-1.521,0.402-2.98,0.566-4.375,0.492
		c-1.396-0.074-2.725-0.389-3.984-0.943c-1.7-0.749-3.085-1.793-4.154-3.133c-1.069-1.341-1.654-2.855-1.756-4.546
		c-0.102-1.69,0.221-3.386,0.97-5.085c0.742-1.686,1.787-3.104,3.135-4.255c1.347-1.148,2.839-1.787,4.474-1.914
		c1.635-0.125,3.314,0.19,5.039,0.95c1.252,0.55,2.294,1.252,3.127,2.104c0.833,0.851,1.378,1.765,1.634,2.742
		c0.255,0.977,0.276,2.114,0.063,3.411l-2.316-0.343c0.129-0.996,0.111-1.832-0.053-2.505c-0.164-0.674-0.537-1.319-1.12-1.938
		s-1.312-1.12-2.186-1.506c-1.047-0.46-2.023-0.7-2.927-0.718c-0.904-0.018-1.705,0.131-2.402,0.444
		c-0.697,0.313-1.313,0.725-1.847,1.232c-0.912,0.876-1.644,1.94-2.195,3.192c-0.679,1.543-0.982,2.951-0.908,4.225
		c0.073,1.272,0.507,2.386,1.301,3.337s1.761,1.678,2.903,2.182c0.992,0.436,2.044,0.671,3.158,0.705
		c1.113,0.034,2.009-0.058,2.688-0.276l1.419-3.224L165.82,444.238z"/>
	<path fill="#FFFFFF" d="M175.36,456.157l5.929-17.965l12.99,4.287l-0.7,2.12l-10.612-3.503l-1.816,5.502l9.938,3.28l-0.695,2.108
		l-9.938-3.28l-2.019,6.115l11.029,3.64l-0.7,2.12L175.36,456.157z"/>
	<path fill="#FFFFFF" d="M202.959,454.845c0.574-3.087,1.852-5.351,3.834-6.788c1.982-1.438,4.285-1.914,6.908-1.426
		c1.716,0.319,3.188,1.018,4.415,2.093c1.225,1.076,2.064,2.416,2.514,4.019c0.451,1.602,0.502,3.333,0.157,5.194
		c-0.351,1.886-1.045,3.502-2.083,4.85c-1.038,1.346-2.326,2.273-3.864,2.779s-3.115,0.609-4.73,0.309
		c-1.751-0.325-3.237-1.04-4.458-2.141c-1.222-1.103-2.051-2.451-2.49-4.048C202.723,458.091,202.655,456.478,202.959,454.845z
		 M205.489,455.354c-0.417,2.241-0.142,4.118,0.824,5.633c0.965,1.515,2.357,2.44,4.176,2.779c1.852,0.343,3.498-0.023,4.937-1.104
		c1.438-1.081,2.38-2.818,2.826-5.211c0.282-1.515,0.271-2.884-0.03-4.107c-0.302-1.225-0.888-2.239-1.757-3.045
		c-0.87-0.805-1.918-1.321-3.145-1.549c-1.743-0.323-3.353-0.005-4.832,0.959S206.01,452.556,205.489,455.354z"/>
	<path fill="#FFFFFF" d="M224.109,467.762l1.737-18.839l12.708,1.173l-0.205,2.223l-10.216-0.941l-0.538,5.834l8.841,0.815
		l-0.205,2.222l-8.841-0.814l-0.789,8.559L224.109,467.762z"/>
	<path fill="#FFFFFF" d="M250.296,469.372l-0.675-18.904l13.669-0.488l0.08,2.231l-11.168,0.398l0.207,5.789l10.459-0.373
		l0.079,2.218l-10.459,0.374l0.229,6.436l11.606-0.415l0.08,2.231L250.296,469.372z"/>
	<path fill="#FFFFFF" d="M269.462,468.538l-2.274-18.78l2.55-0.309L281.387,463l-1.785-14.746l2.383-0.288l2.273,18.781
		l-2.549,0.309l-11.651-13.564l1.786,14.758L269.462,468.538z"/>
	<path fill="#FFFFFF" d="M297.251,456.597l-0.483-2.168l7.818-1.758l1.529,6.853c-0.987,1.225-2.064,2.222-3.233,2.987
		c-1.169,0.769-2.425,1.302-3.769,1.602c-1.813,0.406-3.548,0.385-5.203-0.062c-1.655-0.445-3.024-1.319-4.108-2.619
		c-1.083-1.301-1.828-2.859-2.232-4.671c-0.4-1.798-0.399-3.56,0.005-5.283c0.403-1.726,1.226-3.124,2.469-4.194
		c1.241-1.07,2.782-1.811,4.62-2.221c1.336-0.299,2.591-0.352,3.767-0.16c1.175,0.191,2.155,0.605,2.94,1.241
		c0.786,0.636,1.477,1.538,2.073,2.71l-2.069,1.098c-0.487-0.879-0.996-1.541-1.527-1.987c-0.532-0.445-1.215-0.745-2.052-0.897
		c-0.836-0.151-1.72-0.124-2.652,0.083c-1.117,0.249-2.044,0.635-2.783,1.156c-0.738,0.522-1.295,1.116-1.671,1.782
		s-0.629,1.361-0.758,2.086c-0.216,1.247-0.174,2.537,0.124,3.873c0.367,1.645,0.958,2.959,1.771,3.94
		c0.814,0.982,1.823,1.621,3.026,1.917s2.413,0.308,3.631,0.036c1.058-0.236,2.045-0.67,2.962-1.303
		c0.917-0.632,1.584-1.237,2.001-1.815l-0.767-3.438L297.251,456.597z"/>
	<path fill="#FFFFFF" d="M312.046,460.424l-5.42-18.125l2.398-0.718l5.42,18.126L312.046,460.424z"/>
	<path fill="#FFFFFF" d="M320.016,458.055l-6.628-17.719l2.405-0.9l14.511,10.431l-5.204-13.911l2.248-0.841l6.628,17.718
		l-2.405,0.9l-14.515-10.443l5.208,13.924L320.016,458.055z"/>
	<path fill="#FFFFFF" d="M339.492,450.441l-8.235-17.031l12.314-5.955l0.973,2.01l-10.062,4.865l2.522,5.217l9.422-4.557
		l0.967,1.998l-9.423,4.556l2.804,5.797l10.456-5.056l0.972,2.011L339.492,450.441z"/>
	<path fill="#FFFFFF" d="M356.775,441.793l-9.71-16.236l11.74-7.021l1.146,1.916l-9.591,5.736l2.973,4.973l8.982-5.372l1.14,1.905
		l-8.982,5.372l3.306,5.526l9.968-5.961l1.146,1.916L356.775,441.793z"/>
	<path fill="#FFFFFF" d="M373.265,431.654l-11.156-15.278l6.774-4.946c1.361-0.994,2.497-1.613,3.406-1.856
		c0.909-0.242,1.829-0.171,2.761,0.214c0.931,0.385,1.703,0.998,2.317,1.839c0.791,1.084,1.107,2.254,0.948,3.51
		c-0.159,1.255-0.897,2.521-2.217,3.792c0.723-0.134,1.314-0.177,1.775-0.13c0.985,0.11,2.04,0.38,3.162,0.806l5.693,2.22
		l-2.543,1.856l-4.343-1.703c-1.261-0.485-2.259-0.832-2.996-1.04c-0.737-0.207-1.328-0.297-1.772-0.271
		c-0.444,0.026-0.851,0.116-1.219,0.268c-0.265,0.118-0.658,0.368-1.179,0.749l-2.345,1.712l4.953,6.784L373.265,431.654z
		 M369.054,421.643l4.346-3.173c0.924-0.675,1.577-1.298,1.959-1.87c0.382-0.571,0.554-1.166,0.519-1.785
		c-0.036-0.617-0.234-1.172-0.594-1.666c-0.528-0.723-1.225-1.125-2.089-1.208c-0.864-0.082-1.863,0.29-2.996,1.117l-4.835,3.53
		L369.054,421.643z"/>
	<path fill="#FFFFFF" d="M389.891,419.01l-12.148-14.502l1.92-1.607l12.147,14.502L389.891,419.01z"/>
	<path fill="#FFFFFF" d="M396.29,413.668l-13.086-13.663l1.854-1.774l17.45,3.852l-10.274-10.726l1.733-1.66l13.086,13.662
		l-1.854,1.774l-17.459-3.861l10.284,10.735L396.29,413.668z"/>
	<path fill="#FFFFFF" d="M411.35,387.466l-1.685-1.445l5.206-6.092l5.329,4.568c-0.056,1.573-0.322,3.017-0.798,4.331
		s-1.161,2.495-2.057,3.54c-1.21,1.41-2.61,2.433-4.203,3.067c-1.593,0.636-3.212,0.757-4.858,0.364
		c-1.647-0.392-3.176-1.192-4.587-2.401c-1.397-1.198-2.452-2.609-3.162-4.233c-0.71-1.622-0.89-3.234-0.536-4.836
		c0.353-1.601,1.142-3.117,2.368-4.548c0.89-1.038,1.863-1.832,2.919-2.383c1.057-0.551,2.089-0.808,3.099-0.77
		c1.01,0.039,2.104,0.349,3.283,0.929l-1,2.116c-0.915-0.41-1.72-0.636-2.412-0.675c-0.692-0.038-1.419,0.133-2.181,0.512
		c-0.76,0.378-1.452,0.93-2.073,1.655c-0.745,0.869-1.256,1.734-1.535,2.594c-0.278,0.86-0.369,1.67-0.271,2.428
		c0.098,0.758,0.313,1.466,0.644,2.123c0.574,1.128,1.381,2.137,2.42,3.027c1.279,1.098,2.54,1.796,3.78,2.093
		c1.24,0.299,2.43,0.206,3.57-0.277c1.141-0.484,2.116-1.2,2.929-2.147c0.705-0.823,1.235-1.763,1.591-2.818
		c0.355-1.055,0.526-1.938,0.515-2.651l-2.675-2.294L411.35,387.466z"/>
</g>
<g>
	<path fill="none" d="M491.039,251.18c-0.27,132.95-108.259,240.503-241.211,240.234c-132.945-0.269-240.5-108.26-240.234-241.21
		C9.864,117.257,117.856,9.7,250.803,9.965C383.754,10.237,491.308,118.229,491.039,251.18z"/>
	<path fill="#FFFFFF" d="M77.108,389.906l1.498,1.946l-8.498,6.541c-1.478,1.138-2.781,1.874-3.908,2.209
		c-1.127,0.335-2.299,0.275-3.516-0.178s-2.371-1.389-3.463-2.807c-1.061-1.379-1.69-2.688-1.89-3.93
		c-0.2-1.242,0.006-2.396,0.617-3.463c0.611-1.067,1.696-2.201,3.255-3.399l8.498-6.542l1.498,1.946l-8.487,6.534
		c-1.278,0.982-2.128,1.826-2.55,2.529c-0.422,0.704-0.575,1.471-0.458,2.302s0.498,1.664,1.142,2.5
		c1.102,1.431,2.211,2.202,3.328,2.312c1.117,0.108,2.599-0.547,4.445-1.968L77.108,389.906z"/>
	<path fill="#FFFFFF" d="M67.522,407.502l13.708-12.514l1.699,1.861l-4.19,17.024l10.763-9.825l1.587,1.74l-13.708,12.513
		l-1.698-1.86l4.199-17.034l-10.772,9.834L67.522,407.502z"/>
	<path fill="#FFFFFF" d="M81.572,422.374l12.948-13.298l1.76,1.713l-12.948,13.299L81.572,422.374z"/>
	<path fill="#FFFFFF" d="M91.351,431.473l6.761-18.721l2.006,1.745l-5.214,13.338c-0.417,1.069-0.837,2.047-1.26,2.932
		c0.881-0.575,1.798-1.12,2.749-1.635l12.635-6.879l1.891,1.646l-17.667,9.228L91.351,431.473z"/>
	<path fill="#FFFFFF" d="M101.724,440.212l11.061-14.905l10.777,7.999l-1.305,1.758l-8.804-6.533l-3.388,4.564l8.245,6.119
		l-1.297,1.748l-8.246-6.118l-3.765,5.072l9.15,6.791l-1.306,1.76L101.724,440.212z"/>
	<path fill="#FFFFFF" d="M116.967,451.275l9.817-15.751l6.984,4.354c1.404,0.875,2.383,1.682,2.938,2.42s0.827,1.602,0.817,2.591
		c-0.01,0.988-0.284,1.916-0.824,2.782c-0.697,1.118-1.646,1.835-2.847,2.149c-1.201,0.316-2.622,0.106-4.263-0.628
		c0.386,0.608,0.642,1.132,0.768,1.568c0.26,0.938,0.402,1.996,0.424,3.173l0.068,5.995l-2.622-1.634l-0.042-4.577
		c-0.02-1.325-0.07-2.361-0.151-3.107c-0.082-0.747-0.216-1.317-0.402-1.713c-0.187-0.395-0.417-0.732-0.69-1.012
		c-0.205-0.197-0.576-0.463-1.114-0.798l-2.417-1.507l-4.36,6.995L116.967,451.275z M124.537,443.775l4.48,2.793
		c0.953,0.594,1.759,0.96,2.419,1.097c0.66,0.139,1.265,0.078,1.814-0.182c0.55-0.259,0.982-0.643,1.299-1.151
		c0.465-0.745,0.576-1.526,0.334-2.344c-0.242-0.816-0.946-1.589-2.114-2.316l-4.985-3.107L124.537,443.775z"/>
	<path fill="#FFFFFF" d="M136.271,456.083l2.153,0.882c-0.329,0.876-0.45,1.67-0.367,2.382c0.084,0.713,0.417,1.426,0.999,2.139
		s1.342,1.312,2.279,1.795c0.833,0.429,1.632,0.685,2.397,0.766s1.415-0.013,1.948-0.284c0.534-0.271,0.932-0.661,1.195-1.172
		c0.267-0.518,0.35-1.047,0.249-1.588c-0.101-0.542-0.429-1.121-0.984-1.739c-0.354-0.4-1.194-1.174-2.522-2.319
		c-1.329-1.145-2.213-2.035-2.654-2.671c-0.576-0.818-0.899-1.633-0.97-2.443c-0.071-0.811,0.088-1.596,0.479-2.353
		c0.429-0.833,1.066-1.489,1.913-1.97c0.846-0.48,1.819-0.674,2.92-0.581c1.102,0.092,2.207,0.425,3.317,0.997
		c1.223,0.63,2.2,1.383,2.931,2.259c0.731,0.875,1.15,1.825,1.259,2.849c0.108,1.025-0.068,2.03-0.53,3.018l-2.174-0.921
		c0.425-1.101,0.451-2.085,0.076-2.952s-1.196-1.628-2.463-2.281c-1.32-0.681-2.407-0.935-3.261-0.762
		c-0.854,0.172-1.456,0.6-1.808,1.282c-0.306,0.594-0.343,1.191-0.113,1.794c0.223,0.6,1.118,1.557,2.685,2.873
		c1.567,1.315,2.604,2.294,3.109,2.935c0.732,0.938,1.152,1.864,1.26,2.779c0.107,0.914-0.067,1.814-0.523,2.7
		c-0.453,0.877-1.131,1.574-2.034,2.093c-0.903,0.517-1.936,0.749-3.1,0.694c-1.164-0.054-2.334-0.385-3.513-0.991
		c-1.493-0.77-2.632-1.633-3.417-2.588s-1.239-2.018-1.362-3.188C135.525,458.346,135.732,457.201,136.271,456.083z"/>
	<path fill="#FFFFFF" d="M151.285,470.179l7.561-16.95l2.243,1.001l-7.561,16.95L151.285,470.179z"/>
	<path fill="#FFFFFF" d="M163.042,475.121l5.862-15.285l-5.71-2.189l0.784-2.045l13.736,5.268l-0.784,2.045l-5.733-2.199
		L165.335,476L163.042,475.121z"/>
	<path fill="#FFFFFF" d="M179.891,480.967l2.253-7.533l-3.788-12.3l2.862,0.856l1.902,6.409c0.347,1.197,0.649,2.38,0.908,3.549
		c0.812-0.77,1.772-1.623,2.88-2.561l5.008-4.198l2.742,0.82l-10.161,8.127l-2.253,7.532L179.891,480.967z"/>
	<path fill="#FFFFFF" d="M201.399,477.391c0.531-3.035,1.761-5.268,3.691-6.699s4.184-1.923,6.761-1.471
		c1.688,0.295,3.138,0.965,4.353,2.009c1.214,1.043,2.05,2.349,2.509,3.915c0.458,1.567,0.527,3.266,0.207,5.094
		c-0.325,1.855-0.989,3.447-1.993,4.78c-1.004,1.332-2.258,2.254-3.762,2.767c-1.503,0.512-3.05,0.629-4.638,0.352
		c-1.721-0.302-3.187-0.986-4.396-2.055c-1.21-1.069-2.039-2.384-2.485-3.943C201.2,480.578,201.118,478.994,201.399,477.391z
		 M203.886,477.864c-0.385,2.203-0.097,4.043,0.866,5.518c0.963,1.476,2.338,2.369,4.125,2.682c1.82,0.319,3.431-0.058,4.832-1.134
		c1.401-1.074,2.307-2.787,2.719-5.14c0.26-1.488,0.236-2.831-0.073-4.029s-0.894-2.188-1.755-2.969
		c-0.862-0.78-1.896-1.276-3.101-1.486c-1.713-0.301-3.289,0.03-4.729,0.99C205.329,473.256,204.368,475.112,203.886,477.864z"/>
	<path fill="#FFFFFF" d="M222.15,489.87l1.707-18.482l12.468,1.151l-0.201,2.182l-10.022-0.926l-0.529,5.724l8.674,0.801
		l-0.202,2.182l-8.674-0.801l-0.775,8.396L222.15,489.87z"/>
	<path fill="#FFFFFF" d="M251.688,491.437l-0.232-16.367l-6.115,0.086l-0.031-2.189l14.71-0.21l0.031,2.19l-6.14,0.088l0.232,16.368
		L251.688,491.437z"/>
	<path fill="#FFFFFF" d="M264.353,491.14l-1.62-18.489l2.448-0.214l0.664,7.592l9.611-0.841l-0.665-7.593l2.446-0.214l1.619,18.489
		l-2.447,0.214l-0.763-8.715l-9.61,0.842l0.764,8.715L264.353,491.14z"/>
	<path fill="#FFFFFF" d="M284.479,489.121l-3.111-18.299l13.23-2.249l0.366,2.159l-10.808,1.838l0.952,5.604l10.123-1.722
		l0.364,2.147l-10.121,1.721l1.059,6.229l11.233-1.911l0.366,2.16L284.479,489.121z"/>
	<path fill="#FFFFFF" d="M310.965,483.829l-5.158-17.83l6.726-1.945c1.185-0.343,2.104-0.547,2.763-0.614
		c0.917-0.107,1.731-0.042,2.441,0.196c0.711,0.238,1.354,0.674,1.928,1.308c0.573,0.634,0.989,1.393,1.244,2.275
		c0.439,1.517,0.327,2.939-0.334,4.268c-0.661,1.33-2.252,2.359-4.773,3.089l-4.573,1.322l2.097,7.249L310.965,483.829z
		 M310.619,473.794l4.609-1.334c1.524-0.44,2.524-1.037,3.001-1.79c0.476-0.753,0.565-1.645,0.268-2.675
		c-0.216-0.745-0.589-1.329-1.119-1.751c-0.531-0.422-1.13-0.629-1.795-0.622c-0.428,0.01-1.177,0.17-2.247,0.479l-4.561,1.32
		L310.619,473.794z"/>
	<path fill="#FFFFFF" d="M329.089,478.372l-6.599-17.348l2.295-0.873l2.71,7.124l9.018-3.431l-2.71-7.123l2.295-0.873l6.6,17.347
		l-2.296,0.873l-3.11-8.176l-9.017,3.429l3.11,8.178L329.089,478.372z"/>
	<path fill="#FFFFFF" d="M348.004,470.798l-7.622-16.924l2.239-1.009l7.622,16.924L348.004,470.798z"/>
	<path fill="#FFFFFF" d="M355.168,467.532l-8.459-16.521l2.187-1.119l7.461,14.57l8.136-4.166l0.999,1.95L355.168,467.532z"/>
	<path fill="#FFFFFF" d="M369.438,459.954l-9.275-16.077l2.128-1.227l9.275,16.076L369.438,459.954z"/>
	<path fill="#FFFFFF" d="M376.413,455.922l-10.162-15.531l5.857-3.833c1.031-0.675,1.852-1.141,2.46-1.397
		c0.846-0.372,1.643-0.549,2.392-0.529s1.491,0.247,2.227,0.685c0.734,0.437,1.354,1.04,1.857,1.81
		c0.865,1.321,1.176,2.714,0.935,4.178c-0.242,1.466-1.462,2.916-3.658,4.354l-3.983,2.607l4.132,6.313L376.413,455.922z
		 M373.138,446.43l4.015-2.627c1.328-0.869,2.109-1.732,2.344-2.593c0.234-0.858,0.058-1.738-0.529-2.635
		c-0.425-0.649-0.952-1.099-1.584-1.346c-0.631-0.247-1.264-0.271-1.897-0.067c-0.406,0.135-1.075,0.507-2.008,1.117l-3.973,2.6
		L373.138,446.43z"/>
	<path fill="#FFFFFF" d="M392.043,445.437l-11.341-14.691l5.541-4.279c0.976-0.753,1.757-1.28,2.344-1.584
		c0.814-0.437,1.596-0.675,2.344-0.714c0.748-0.04,1.506,0.131,2.272,0.509c0.767,0.379,1.431,0.932,1.993,1.66
		c0.965,1.25,1.383,2.614,1.256,4.093s-1.229,3.021-3.307,4.624l-3.769,2.909l4.61,5.973L392.043,445.437z M388.038,436.229
		l3.798-2.933c1.256-0.97,1.968-1.892,2.135-2.768c0.167-0.875-0.077-1.736-0.732-2.585c-0.474-0.614-1.036-1.021-1.685-1.219
		s-1.281-0.171-1.896,0.081c-0.395,0.165-1.033,0.589-1.915,1.27l-3.758,2.9L388.038,436.229z"/>
	<path fill="#FFFFFF" d="M406.862,433.604l-12.144-14.036l1.857-1.608l12.144,14.038L406.862,433.604z"/>
	<path fill="#FFFFFF" d="M412.986,428.325l-12.95-13.296l1.805-1.758l17.151,3.638l-10.167-10.439l1.687-1.644l12.95,13.297
		l-1.806,1.758l-17.159-3.646l10.176,10.448L412.986,428.325z"/>
	<path fill="#FFFFFF" d="M427.371,413.956l-13.979-12.209l8.828-10.108l1.65,1.441l-7.214,8.258l4.282,3.74l6.755-7.733l1.64,1.432
		l-6.754,7.733l4.758,4.156l7.495-8.582l1.65,1.44L427.371,413.956z"/>
	<path fill="#FFFFFF" d="M434.274,396.79l1.221-1.979c0.811,0.468,1.574,0.717,2.291,0.751c0.716,0.034,1.475-0.178,2.272-0.636
		c0.799-0.457,1.513-1.109,2.144-1.955c0.559-0.752,0.941-1.498,1.147-2.24c0.204-0.741,0.217-1.397,0.037-1.969
		c-0.18-0.57-0.5-1.028-0.961-1.371c-0.467-0.348-0.975-0.516-1.526-0.505c-0.55,0.012-1.175,0.24-1.876,0.687
		c-0.453,0.283-1.353,0.986-2.699,2.11c-1.348,1.122-2.37,1.85-3.069,2.181c-0.902,0.434-1.758,0.62-2.569,0.558
		s-1.559-0.348-2.243-0.858c-0.751-0.559-1.295-1.295-1.631-2.208c-0.335-0.913-0.367-1.905-0.096-2.976
		c0.271-1.072,0.78-2.108,1.526-3.11c0.821-1.103,1.725-1.944,2.707-2.522c0.983-0.578,1.989-0.836,3.018-0.775
		s1.991,0.399,2.89,1.016l-1.264,1.994c-1.017-0.6-1.984-0.785-2.9-0.558c-0.917,0.228-1.801,0.913-2.653,2.058
		c-0.887,1.191-1.315,2.223-1.284,3.093c0.03,0.87,0.354,1.534,0.97,1.993c0.535,0.398,1.119,0.532,1.751,0.404
		c0.627-0.122,1.719-0.849,3.273-2.181c1.554-1.33,2.688-2.193,3.403-2.588c1.044-0.569,2.027-0.831,2.947-0.789
		c0.92,0.044,1.779,0.363,2.578,0.958c0.792,0.59,1.37,1.373,1.732,2.348c0.363,0.976,0.423,2.033,0.179,3.173
		c-0.243,1.139-0.76,2.24-1.553,3.304c-1.002,1.346-2.039,2.328-3.11,2.947c-1.07,0.618-2.193,0.893-3.367,0.822
		C436.385,397.896,435.29,397.504,434.274,396.79z"/>
</g>
<g>
</g>
<g>
</g>
<g>
</g>
<g>
</g>
<g>
</g>
<g>
</g>
</svg>
